<mxfile host="app.diagrams.net" agent="Mozilla/5.0 (X11; Ubuntu; Linux x86_64; rv:139.0) Gecko/20100101 Firefox/139.0" version="27.1.5">
  <diagram name="PÃ¡gina-1" id="Yqon25m9FEIiKu8_vJAu">
    <mxGraphModel dx="1327" dy="650" grid="1" gridSize="10" guides="1" tooltips="1" connect="1" arrows="1" fold="1" page="1" pageScale="1" pageWidth="827" pageHeight="1169" math="0" shadow="0">
      <root>
        <mxCell id="0" />
        <mxCell id="1" parent="0" />
        <mxCell id="sVAAJ4zOGn3q4FOsHnnl-1" value="&lt;div&gt;&lt;span style=&quot;color: rgb(0, 0, 0);&quot;&gt;Usuario&lt;/span&gt;&lt;span style=&quot;color: rgb(0, 0, 0);&quot;&gt;&lt;span style=&quot;color: rgb(0, 0, 0);&quot;&gt; &lt;/span&gt;1&lt;/span&gt;&lt;/div&gt;&lt;div&gt;&lt;br&gt;&lt;/div&gt;" style="points=[[0.35,0,0],[0.98,0.51,0],[1,0.71,0],[0.67,1,0],[0,0.795,0],[0,0.65,0]];verticalLabelPosition=bottom;sketch=0;html=1;verticalAlign=top;aspect=fixed;align=center;pointerEvents=1;shape=mxgraph.cisco19.user;fillColor=#d80073;strokeColor=#A50040;fontColor=#ffffff;" vertex="1" parent="1">
          <mxGeometry x="150" y="160" width="50" height="50" as="geometry" />
        </mxCell>
        <mxCell id="sVAAJ4zOGn3q4FOsHnnl-2" value="&lt;div&gt;&lt;span style=&quot;color: rgb(51, 51, 51);&quot;&gt;Usuario 2&lt;/span&gt;&lt;/div&gt;&lt;div&gt;&lt;span style=&quot;color: rgba(0, 0, 0, 0);&quot;&gt;&lt;br&gt;&lt;/span&gt;&lt;/div&gt;" style="points=[[0.35,0,0],[0.98,0.51,0],[1,0.71,0],[0.67,1,0],[0,0.795,0],[0,0.65,0]];verticalLabelPosition=bottom;sketch=0;html=1;verticalAlign=top;aspect=fixed;align=center;pointerEvents=1;shape=mxgraph.cisco19.user;fillColor=#0050ef;strokeColor=#001DBC;fontColor=#ffffff;" vertex="1" parent="1">
          <mxGeometry x="80" y="280" width="50" height="50" as="geometry" />
        </mxCell>
        <mxCell id="sVAAJ4zOGn3q4FOsHnnl-3" value="usuario 3" style="points=[[0.35,0,0],[0.98,0.51,0],[1,0.71,0],[0.67,1,0],[0,0.795,0],[0,0.65,0]];verticalLabelPosition=bottom;sketch=0;html=1;verticalAlign=top;aspect=fixed;align=center;pointerEvents=1;shape=mxgraph.cisco19.user;fillColor=#e3c800;strokeColor=#B09500;fontColor=#000000;" vertex="1" parent="1">
          <mxGeometry x="200" y="380" width="50" height="50" as="geometry" />
        </mxCell>
        <mxCell id="sVAAJ4zOGn3q4FOsHnnl-4" value="" style="ellipse;whiteSpace=wrap;html=1;aspect=fixed;fillColor=#1ba1e2;fontColor=#ffffff;strokeColor=#006EAF;" vertex="1" parent="1">
          <mxGeometry x="330" y="260" width="40" height="40" as="geometry" />
        </mxCell>
        <mxCell id="sVAAJ4zOGn3q4FOsHnnl-14" value="" style="endArrow=none;html=1;rounded=0;exitX=0.98;exitY=0.51;exitDx=0;exitDy=0;exitPerimeter=0;entryX=0;entryY=0.5;entryDx=0;entryDy=0;dashed=1;" edge="1" parent="1" source="sVAAJ4zOGn3q4FOsHnnl-1" target="sVAAJ4zOGn3q4FOsHnnl-4">
          <mxGeometry width="50" height="50" relative="1" as="geometry">
            <mxPoint x="390" y="220" as="sourcePoint" />
            <mxPoint x="440" y="170" as="targetPoint" />
          </mxGeometry>
        </mxCell>
        <mxCell id="sVAAJ4zOGn3q4FOsHnnl-15" value="" style="endArrow=none;html=1;rounded=0;exitX=0.98;exitY=0.51;exitDx=0;exitDy=0;exitPerimeter=0;entryX=0;entryY=0.5;entryDx=0;entryDy=0;dashed=1;" edge="1" parent="1" source="sVAAJ4zOGn3q4FOsHnnl-2" target="sVAAJ4zOGn3q4FOsHnnl-4">
          <mxGeometry width="50" height="50" relative="1" as="geometry">
            <mxPoint x="320" y="290" as="sourcePoint" />
            <mxPoint x="451" y="384" as="targetPoint" />
          </mxGeometry>
        </mxCell>
        <mxCell id="sVAAJ4zOGn3q4FOsHnnl-16" value="" style="endArrow=none;html=1;rounded=0;exitX=0.98;exitY=0.51;exitDx=0;exitDy=0;exitPerimeter=0;entryX=0;entryY=0.5;entryDx=0;entryDy=0;dashed=1;" edge="1" parent="1" source="sVAAJ4zOGn3q4FOsHnnl-3" target="sVAAJ4zOGn3q4FOsHnnl-4">
          <mxGeometry width="50" height="50" relative="1" as="geometry">
            <mxPoint x="270" y="346" as="sourcePoint" />
            <mxPoint x="471" y="320" as="targetPoint" />
          </mxGeometry>
        </mxCell>
        <mxCell id="sVAAJ4zOGn3q4FOsHnnl-17" value="" style="triangle;whiteSpace=wrap;html=1;rotation=-90;fillColor=#f8cecc;strokeColor=#b85450;" vertex="1" parent="1">
          <mxGeometry x="250" y="210" width="25" height="25" as="geometry" />
        </mxCell>
        <mxCell id="sVAAJ4zOGn3q4FOsHnnl-21" value="" style="verticalLabelPosition=bottom;verticalAlign=top;html=1;shape=mxgraph.basic.star;fillColor=#dae8fc;strokeColor=#6c8ebf;" vertex="1" parent="1">
          <mxGeometry x="210" y="270" width="40" height="35" as="geometry" />
        </mxCell>
        <mxCell id="sVAAJ4zOGn3q4FOsHnnl-22" value="" style="html=1;whiteSpace=wrap;aspect=fixed;shape=isoRectangle;fillColor=#fff2cc;strokeColor=#d6b656;" vertex="1" parent="1">
          <mxGeometry x="270" y="320" width="50" height="30" as="geometry" />
        </mxCell>
        <mxCell id="sVAAJ4zOGn3q4FOsHnnl-23" value="" style="endArrow=none;html=1;rounded=0;exitX=1;exitY=0.5;exitDx=0;exitDy=0;entryX=0;entryY=0.5;entryDx=0;entryDy=0;" edge="1" parent="1" source="sVAAJ4zOGn3q4FOsHnnl-4" target="sVAAJ4zOGn3q4FOsHnnl-24">
          <mxGeometry width="50" height="50" relative="1" as="geometry">
            <mxPoint x="390" y="220" as="sourcePoint" />
            <mxPoint x="440" y="170" as="targetPoint" />
          </mxGeometry>
        </mxCell>
        <mxCell id="sVAAJ4zOGn3q4FOsHnnl-24" value="" style="ellipse;whiteSpace=wrap;html=1;aspect=fixed;fillColor=#1ba1e2;fontColor=#ffffff;strokeColor=#006EAF;" vertex="1" parent="1">
          <mxGeometry x="550" y="261.5" width="40" height="40" as="geometry" />
        </mxCell>
        <mxCell id="sVAAJ4zOGn3q4FOsHnnl-25" value="" style="triangle;whiteSpace=wrap;html=1;rotation=-90;fillColor=#f8cecc;strokeColor=#b85450;" vertex="1" parent="1">
          <mxGeometry x="397" y="268" width="25" height="25" as="geometry" />
        </mxCell>
        <mxCell id="sVAAJ4zOGn3q4FOsHnnl-26" value="" style="verticalLabelPosition=bottom;verticalAlign=top;html=1;shape=mxgraph.basic.star;fillColor=#dae8fc;strokeColor=#6c8ebf;" vertex="1" parent="1">
          <mxGeometry x="437" y="263" width="40" height="35" as="geometry" />
        </mxCell>
        <mxCell id="sVAAJ4zOGn3q4FOsHnnl-27" value="" style="html=1;whiteSpace=wrap;aspect=fixed;shape=isoRectangle;fillColor=#fff2cc;strokeColor=#d6b656;" vertex="1" parent="1">
          <mxGeometry x="486" y="267" width="50" height="30" as="geometry" />
        </mxCell>
        <mxCell id="sVAAJ4zOGn3q4FOsHnnl-29" value="" style="ellipse;whiteSpace=wrap;html=1;aspect=fixed;fillColor=#1ba1e2;fontColor=#ffffff;strokeColor=#006EAF;" vertex="1" parent="1">
          <mxGeometry x="750" y="260" width="40" height="40" as="geometry" />
        </mxCell>
        <mxCell id="sVAAJ4zOGn3q4FOsHnnl-33" value="" style="endArrow=none;html=1;rounded=0;entryX=0;entryY=0.5;entryDx=0;entryDy=0;exitX=1;exitY=0.5;exitDx=0;exitDy=0;" edge="1" parent="1" source="sVAAJ4zOGn3q4FOsHnnl-24" target="sVAAJ4zOGn3q4FOsHnnl-29">
          <mxGeometry width="50" height="50" relative="1" as="geometry">
            <mxPoint x="390" y="220" as="sourcePoint" />
            <mxPoint x="440" y="170" as="targetPoint" />
          </mxGeometry>
        </mxCell>
        <mxCell id="sVAAJ4zOGn3q4FOsHnnl-30" value="" style="ellipse;whiteSpace=wrap;html=1;aspect=fixed;fillColor=#f8cecc;strokeColor=#b85450;" vertex="1" parent="1">
          <mxGeometry x="620" y="271.5" width="20" height="20" as="geometry" />
        </mxCell>
        <mxCell id="sVAAJ4zOGn3q4FOsHnnl-31" value="" style="ellipse;whiteSpace=wrap;html=1;aspect=fixed;fillColor=#dae8fc;strokeColor=#6c8ebf;" vertex="1" parent="1">
          <mxGeometry x="660" y="271.5" width="20" height="20" as="geometry" />
        </mxCell>
        <mxCell id="sVAAJ4zOGn3q4FOsHnnl-32" value="" style="ellipse;whiteSpace=wrap;html=1;aspect=fixed;fillColor=#fff2cc;strokeColor=#d6b656;" vertex="1" parent="1">
          <mxGeometry x="700" y="271.5" width="20" height="20" as="geometry" />
        </mxCell>
        <mxCell id="sVAAJ4zOGn3q4FOsHnnl-34" value="" style="curved=1;endArrow=classic;html=1;rounded=0;entryX=0;entryY=0.5;entryDx=0;entryDy=0;exitX=1;exitY=0.5;exitDx=0;exitDy=0;" edge="1" parent="1" source="sVAAJ4zOGn3q4FOsHnnl-29" target="sVAAJ4zOGn3q4FOsHnnl-37">
          <mxGeometry width="50" height="50" relative="1" as="geometry">
            <mxPoint x="827" y="283.75" as="sourcePoint" />
            <mxPoint x="877" y="233.75" as="targetPoint" />
            <Array as="points">
              <mxPoint x="850" y="270" />
              <mxPoint x="827" y="233.75" />
            </Array>
          </mxGeometry>
        </mxCell>
        <mxCell id="sVAAJ4zOGn3q4FOsHnnl-36" value="" style="curved=1;endArrow=classic;html=1;rounded=0;entryX=0;entryY=0.5;entryDx=0;entryDy=0;exitX=1;exitY=0.5;exitDx=0;exitDy=0;" edge="1" parent="1" source="sVAAJ4zOGn3q4FOsHnnl-29" target="sVAAJ4zOGn3q4FOsHnnl-39">
          <mxGeometry width="50" height="50" relative="1" as="geometry">
            <mxPoint x="827" y="283.75" as="sourcePoint" />
            <mxPoint x="877" y="333.75" as="targetPoint" />
            <Array as="points">
              <mxPoint x="850" y="300" />
              <mxPoint x="827" y="333.75" />
            </Array>
          </mxGeometry>
        </mxCell>
        <mxCell id="sVAAJ4zOGn3q4FOsHnnl-37" value="" style="ellipse;whiteSpace=wrap;html=1;aspect=fixed;fillColor=#1ba1e2;fontColor=#ffffff;strokeColor=#006EAF;" vertex="1" parent="1">
          <mxGeometry x="887" y="203.75" width="40" height="40" as="geometry" />
        </mxCell>
        <mxCell id="sVAAJ4zOGn3q4FOsHnnl-39" value="" style="ellipse;whiteSpace=wrap;html=1;aspect=fixed;fillColor=#1ba1e2;fontColor=#ffffff;strokeColor=#006EAF;" vertex="1" parent="1">
          <mxGeometry x="879" y="340.25" width="40" height="40" as="geometry" />
        </mxCell>
        <mxCell id="sVAAJ4zOGn3q4FOsHnnl-41" value="" style="html=1;verticalLabelPosition=bottom;align=center;labelBackgroundColor=#ffffff;verticalAlign=top;strokeWidth=2;strokeColor=#0080F0;shadow=0;dashed=0;shape=mxgraph.ios7.icons.data;" vertex="1" parent="1">
          <mxGeometry x="997" y="322.25" width="50" height="64.1" as="geometry" />
        </mxCell>
        <mxCell id="sVAAJ4zOGn3q4FOsHnnl-42" value="" style="endArrow=none;html=1;rounded=0;exitX=1;exitY=0.5;exitDx=0;exitDy=0;entryX=0;entryY=0.609;entryDx=0;entryDy=0;entryPerimeter=0;" edge="1" parent="1" source="sVAAJ4zOGn3q4FOsHnnl-39" target="sVAAJ4zOGn3q4FOsHnnl-41">
          <mxGeometry width="50" height="50" relative="1" as="geometry">
            <mxPoint x="689" y="245.25" as="sourcePoint" />
            <mxPoint x="739" y="195.25" as="targetPoint" />
          </mxGeometry>
        </mxCell>
        <mxCell id="sVAAJ4zOGn3q4FOsHnnl-43" value="" style="verticalLabelPosition=bottom;html=1;verticalAlign=top;align=center;strokeColor=#B20000;fillColor=#e51400;shape=mxgraph.azure.notification_topic;fontColor=#ffffff;" vertex="1" parent="1">
          <mxGeometry x="997" y="198.75" width="50" height="50" as="geometry" />
        </mxCell>
        <mxCell id="sVAAJ4zOGn3q4FOsHnnl-44" value="" style="endArrow=none;html=1;rounded=0;exitX=1;exitY=0.5;exitDx=0;exitDy=0;entryX=0;entryY=0.5;entryDx=0;entryDy=0;entryPerimeter=0;" edge="1" parent="1" source="sVAAJ4zOGn3q4FOsHnnl-37" target="sVAAJ4zOGn3q4FOsHnnl-43">
          <mxGeometry width="50" height="50" relative="1" as="geometry">
            <mxPoint x="1087" y="143.75" as="sourcePoint" />
            <mxPoint x="1147" y="144.75" as="targetPoint" />
          </mxGeometry>
        </mxCell>
        <mxCell id="sVAAJ4zOGn3q4FOsHnnl-46" value="Datos Usuario 1" style="text;strokeColor=none;align=center;fillColor=none;html=1;verticalAlign=middle;whiteSpace=wrap;rounded=0;" vertex="1" parent="1">
          <mxGeometry x="232.5" y="237" width="60" height="30" as="geometry" />
        </mxCell>
        <mxCell id="sVAAJ4zOGn3q4FOsHnnl-47" value="Datos Usuario 2" style="text;strokeColor=none;align=center;fillColor=none;html=1;verticalAlign=middle;whiteSpace=wrap;rounded=0;" vertex="1" parent="1">
          <mxGeometry x="200" y="305" width="60" height="30" as="geometry" />
        </mxCell>
        <mxCell id="sVAAJ4zOGn3q4FOsHnnl-48" value="&lt;div&gt;Datos Usuario 3&lt;/div&gt;" style="text;strokeColor=none;align=center;fillColor=none;html=1;verticalAlign=middle;whiteSpace=wrap;rounded=0;" vertex="1" parent="1">
          <mxGeometry x="265" y="355" width="60" height="30" as="geometry" />
        </mxCell>
        <mxCell id="sVAAJ4zOGn3q4FOsHnnl-49" value="&lt;div&gt;Punto de acceso&lt;/div&gt;" style="text;strokeColor=none;align=center;fillColor=none;html=1;verticalAlign=middle;whiteSpace=wrap;rounded=0;" vertex="1" parent="1">
          <mxGeometry x="320" y="298" width="60" height="30" as="geometry" />
        </mxCell>
        <mxCell id="sVAAJ4zOGn3q4FOsHnnl-50" value="NormalizaciÃ³n de los datos" style="text;strokeColor=none;align=center;fillColor=none;html=1;verticalAlign=middle;whiteSpace=wrap;rounded=0;" vertex="1" parent="1">
          <mxGeometry x="540" y="301.5" width="60" height="30" as="geometry" />
        </mxCell>
        <mxCell id="sVAAJ4zOGn3q4FOsHnnl-52" value="MCB" style="text;strokeColor=none;align=center;fillColor=none;html=1;verticalAlign=middle;whiteSpace=wrap;rounded=0;" vertex="1" parent="1">
          <mxGeometry x="740" y="297" width="60" height="30" as="geometry" />
        </mxCell>
        <mxCell id="sVAAJ4zOGn3q4FOsHnnl-53" value="MCM" style="text;strokeColor=none;align=center;fillColor=none;html=1;verticalAlign=middle;whiteSpace=wrap;rounded=0;" vertex="1" parent="1">
          <mxGeometry x="877" y="243.75" width="60" height="30" as="geometry" />
        </mxCell>
        <mxCell id="sVAAJ4zOGn3q4FOsHnnl-54" value="&lt;div&gt;Sistema de gestiÃ³n de alertas&lt;/div&gt;" style="text;strokeColor=none;align=center;fillColor=none;html=1;verticalAlign=middle;whiteSpace=wrap;rounded=0;" vertex="1" parent="1">
          <mxGeometry x="972" y="248.75" width="100" height="30" as="geometry" />
        </mxCell>
        <mxCell id="sVAAJ4zOGn3q4FOsHnnl-55" value="&lt;div&gt;Control de acceso&lt;/div&gt;" style="text;strokeColor=none;align=center;fillColor=none;html=1;verticalAlign=middle;whiteSpace=wrap;rounded=0;" vertex="1" parent="1">
          <mxGeometry x="864" y="386.35" width="70" height="30" as="geometry" />
        </mxCell>
        <mxCell id="sVAAJ4zOGn3q4FOsHnnl-57" value="Sistema" style="text;strokeColor=none;align=center;fillColor=none;html=1;verticalAlign=middle;whiteSpace=wrap;rounded=0;" vertex="1" parent="1">
          <mxGeometry x="987" y="395.25" width="70" height="30" as="geometry" />
        </mxCell>
        <mxCell id="sVAAJ4zOGn3q4FOsHnnl-59" value="Conexiones malignas" style="text;strokeColor=none;align=center;fillColor=none;html=1;verticalAlign=middle;whiteSpace=wrap;rounded=0;rotation=-45;fontColor=#7D7D7D;" vertex="1" parent="1">
          <mxGeometry x="796" y="200.75" width="60" height="30" as="geometry" />
        </mxCell>
        <mxCell id="sVAAJ4zOGn3q4FOsHnnl-60" value="Conexiones benignas" style="text;strokeColor=none;align=center;fillColor=none;html=1;verticalAlign=middle;whiteSpace=wrap;rounded=0;rotation=45;fontColor=#7D7D7D;" vertex="1" parent="1">
          <mxGeometry x="788.9998051533946" y="327.9998051533946" width="60" height="30" as="geometry" />
        </mxCell>
        <mxCell id="sVAAJ4zOGn3q4FOsHnnl-61" value="Datos entrando al sistema" style="text;strokeColor=none;align=center;fillColor=none;html=1;verticalAlign=middle;whiteSpace=wrap;rounded=0;rotation=0;fontColor=#7D7D7D;" vertex="1" parent="1">
          <mxGeometry x="413" y="218.75" width="88" height="30" as="geometry" />
        </mxCell>
        <mxCell id="sVAAJ4zOGn3q4FOsHnnl-62" value="Datos ya normalizados" style="text;strokeColor=none;align=center;fillColor=none;html=1;verticalAlign=middle;whiteSpace=wrap;rounded=0;rotation=0;fontColor=#7D7D7D;" vertex="1" parent="1">
          <mxGeometry x="626" y="230" width="88" height="30" as="geometry" />
        </mxCell>
        <mxCell id="sVAAJ4zOGn3q4FOsHnnl-63" value="" style="ellipse;whiteSpace=wrap;html=1;aspect=fixed;fillColor=#dae8fc;strokeColor=#6c8ebf;" vertex="1" parent="1">
          <mxGeometry x="841" y="223" width="20" height="20" as="geometry" />
        </mxCell>
        <mxCell id="sVAAJ4zOGn3q4FOsHnnl-64" value="" style="ellipse;whiteSpace=wrap;html=1;aspect=fixed;fillColor=#f8cecc;strokeColor=#b85450;" vertex="1" parent="1">
          <mxGeometry x="810" y="284" width="20" height="20" as="geometry" />
        </mxCell>
        <mxCell id="sVAAJ4zOGn3q4FOsHnnl-65" value="" style="ellipse;whiteSpace=wrap;html=1;aspect=fixed;fillColor=#fff2cc;strokeColor=#d6b656;" vertex="1" parent="1">
          <mxGeometry x="844" y="334" width="20" height="20" as="geometry" />
        </mxCell>
      </root>
    </mxGraphModel>
  </diagram>
</mxfile>
